<svg width="262" height="26" viewBox="0 0 262 26" fill="none" xmlns="http://www.w3.org/2000/svg">
<path d="M21.6152 4.05858H23.4245V5.87044H21.6152V4.05858ZM23.4245 4.05858H25.2338V5.87044H23.4245V4.05858ZM21.6152 5.87044H23.4245V7.6823H21.6152V5.87044ZM23.4245 5.87044H25.2338V7.6823H23.4245V5.87044ZM21.6152 7.6823H23.4245V9.49417H21.6152V7.6823ZM23.4245 7.6823H25.2338V9.49417H23.4245V7.6823ZM21.6152 9.49417H23.4245V11.306H21.6152V9.49417ZM23.4245 9.49417H25.2338V11.306H23.4245V9.49417ZM21.6152 11.306H23.4245V13.1179H21.6152V11.306ZM23.4245 11.306H25.2338V13.1179H23.4245V11.306ZM21.6152 13.1179H23.4245V14.9298H21.6152V13.1179ZM23.4245 13.1179H25.2338V14.9298H23.4245V13.1179ZM21.6152 14.9298H23.4245V16.7416H21.6152V14.9298ZM23.4245 14.9298H25.2338V16.7416H23.4245V14.9298ZM21.6152 16.7416H23.4245V18.5535H21.6152V16.7416ZM23.4245 16.7416H25.2338V18.5535H23.4245V16.7416ZM21.6152 18.5535H23.4245V20.3654H21.6152V18.5535ZM23.4245 18.5535H25.2338V20.3654H23.4245V18.5535ZM25.2338 18.5535H27.0431V20.3654H25.2338V18.5535ZM27.0431 18.5535H28.8524V20.3654H27.0431V18.5535ZM28.8524 18.5535H30.6618V20.3654H28.8524V18.5535ZM30.6618 18.5535H32.4711V20.3654H30.6618V18.5535ZM32.4711 18.5535H34.2804V20.3654H32.4711V18.5535ZM34.2804 18.5535H36.0897V20.3654H34.2804V18.5535ZM36.0897 18.5535H37.899V20.3654H36.0897V18.5535ZM37.899 18.5535H39.7083V20.3654H37.899V18.5535ZM21.6152 20.3654H23.4245V22.1772H21.6152V20.3654ZM23.4245 20.3654H25.2338V22.1772H23.4245V20.3654ZM25.2338 20.3654H27.0431V22.1772H25.2338V20.3654ZM27.0431 20.3654H28.8524V22.1772H27.0431V20.3654ZM28.8524 20.3654H30.6618V22.1772H28.8524V20.3654ZM30.6618 20.3654H32.4711V22.1772H30.6618V20.3654ZM32.4711 20.3654H34.2804V22.1772H32.4711V20.3654ZM34.2804 20.3654H36.0897V22.1772H34.2804V20.3654ZM36.0897 20.3654H37.899V22.1772H36.0897V20.3654ZM37.899 20.3654H39.7083V22.1772H37.899V20.3654Z" fill="url(#paint0_linear_34_2)"/>
<path d="M41.988 4.05858H43.7973V5.87044H41.988V4.05858ZM43.7973 4.05858H45.6066V5.87044H43.7973V4.05858ZM45.6066 4.05858H47.416V5.87044H45.6066V4.05858ZM47.416 4.05858H49.2253V5.87044H47.416V4.05858ZM49.2253 4.05858H51.0346V5.87044H49.2253V4.05858ZM51.0346 4.05858H52.8439V5.87044H51.0346V4.05858ZM52.8439 4.05858H54.6532V5.87044H52.8439V4.05858ZM54.6532 4.05858H56.4625V5.87044H54.6532V4.05858ZM56.4625 4.05858H58.2718V5.87044H56.4625V4.05858ZM58.2718 4.05858H60.0811V5.87044H58.2718V4.05858ZM41.988 5.87044H43.7973V7.6823H41.988V5.87044ZM43.7973 5.87044H45.6066V7.6823H43.7973V5.87044ZM45.6066 5.87044H47.416V7.6823H45.6066V5.87044ZM47.416 5.87044H49.2253V7.6823H47.416V5.87044ZM49.2253 5.87044H51.0346V7.6823H49.2253V5.87044ZM51.0346 5.87044H52.8439V7.6823H51.0346V5.87044ZM52.8439 5.87044H54.6532V7.6823H52.8439V5.87044ZM54.6532 5.87044H56.4625V7.6823H54.6532V5.87044ZM56.4625 5.87044H58.2718V7.6823H56.4625V5.87044ZM58.2718 5.87044H60.0811V7.6823H58.2718V5.87044ZM41.988 7.6823H43.7973V9.49417H41.988V7.6823ZM43.7973 7.6823H45.6066V9.49417H43.7973V7.6823ZM56.4625 7.6823H58.2718V9.49417H56.4625V7.6823ZM58.2718 7.6823H60.0811V9.49417H58.2718V7.6823ZM41.988 9.49417H43.7973V11.306H41.988V9.49417ZM43.7973 9.49417H45.6066V11.306H43.7973V9.49417ZM56.4625 9.49417H58.2718V11.306H56.4625V9.49417ZM58.2718 9.49417H60.0811V11.306H58.2718V9.49417ZM41.988 11.306H43.7973V13.1179H41.988V11.306ZM43.7973 11.306H45.6066V13.1179H43.7973V11.306ZM56.4625 11.306H58.2718V13.1179H56.4625V11.306ZM58.2718 11.306H60.0811V13.1179H58.2718V11.306ZM41.988 13.1179H43.7973V14.9298H41.988V13.1179ZM43.7973 13.1179H45.6066V14.9298H43.7973V13.1179ZM56.4625 13.1179H58.2718V14.9298H56.4625V13.1179ZM58.2718 13.1179H60.0811V14.9298H58.2718V13.1179ZM41.988 14.9298H43.7973V16.7416H41.988V14.9298ZM43.7973 14.9298H45.6066V16.7416H43.7973V14.9298ZM56.4625 14.9298H58.2718V16.7416H56.4625V14.9298ZM58.2718 14.9298H60.0811V16.7416H58.2718V14.9298ZM41.988 16.7416H43.7973V18.5535H41.988V16.7416ZM43.7973 16.7416H45.6066V18.5535H43.7973V16.7416ZM56.4625 16.7416H58.2718V18.5535H56.4625V16.7416ZM58.2718 16.7416H60.0811V18.5535H58.2718V16.7416ZM41.988 18.5535H43.7973V20.3654H41.988V18.5535ZM43.7973 18.5535H45.6066V20.3654H43.7973V18.5535ZM45.6066 18.5535H47.416V20.3654H45.6066V18.5535ZM47.416 18.5535H49.2253V20.3654H47.416V18.5535ZM49.2253 18.5535H51.0346V20.3654H49.2253V18.5535ZM51.0346 18.5535H52.8439V20.3654H51.0346V18.5535ZM52.8439 18.5535H54.6532V20.3654H52.8439V18.5535ZM54.6532 18.5535H56.4625V20.3654H54.6532V18.5535ZM56.4625 18.5535H58.2718V20.3654H56.4625V18.5535ZM58.2718 18.5535H60.0811V20.3654H58.2718V18.5535ZM41.988 20.3654H43.7973V22.1772H41.988V20.3654ZM43.7973 20.3654H45.6066V22.1772H43.7973V20.3654ZM45.6066 20.3654H47.416V22.1772H45.6066V20.3654ZM47.416 20.3654H49.2253V22.1772H47.416V20.3654ZM49.2253 20.3654H51.0346V22.1772H49.2253V20.3654ZM51.0346 20.3654H52.8439V22.1772H51.0346V20.3654ZM52.8439 20.3654H54.6532V22.1772H52.8439V20.3654ZM54.6532 20.3654H56.4625V22.1772H54.6532V20.3654ZM56.4625 20.3654H58.2718V22.1772H56.4625V20.3654ZM58.2718 20.3654H60.0811V22.1772H58.2718V20.3654Z" fill="url(#paint1_linear_34_2)"/>
<path d="M62.3608 4.05858H64.1702V5.87044H62.3608V4.05858ZM64.1702 4.05858H65.9795V5.87044H64.1702V4.05858ZM65.9795 4.05858H67.7888V5.87044H65.9795V4.05858ZM67.7888 4.05858H69.5981V5.87044H67.7888V4.05858ZM69.5981 4.05858H71.4074V5.87044H69.5981V4.05858ZM71.4074 4.05858H73.2167V5.87044H71.4074V4.05858ZM73.2167 4.05858H75.026V5.87044H73.2167V4.05858ZM75.026 4.05858H76.8353V5.87044H75.026V4.05858ZM76.8353 4.05858H78.6446V5.87044H76.8353V4.05858ZM78.6446 4.05858H80.4539V5.87044H78.6446V4.05858ZM62.3608 5.87044H64.1702V7.6823H62.3608V5.87044ZM64.1702 5.87044H65.9795V7.6823H64.1702V5.87044ZM65.9795 5.87044H67.7888V7.6823H65.9795V5.87044ZM67.7888 5.87044H69.5981V7.6823H67.7888V5.87044ZM69.5981 5.87044H71.4074V7.6823H69.5981V5.87044ZM71.4074 5.87044H73.2167V7.6823H71.4074V5.87044ZM73.2167 5.87044H75.026V7.6823H73.2167V5.87044ZM75.026 5.87044H76.8353V7.6823H75.026V5.87044ZM76.8353 5.87044H78.6446V7.6823H76.8353V5.87044ZM78.6446 5.87044H80.4539V7.6823H78.6446V5.87044ZM62.3608 7.6823H64.1702V9.49417H62.3608V7.6823ZM64.1702 7.6823H65.9795V9.49417H64.1702V7.6823ZM62.3608 9.49417H64.1702V11.306H62.3608V9.49417ZM64.1702 9.49417H65.9795V11.306H64.1702V9.49417ZM62.3608 11.306H64.1702V13.1179H62.3608V11.306ZM64.1702 11.306H65.9795V13.1179H64.1702V11.306ZM62.3608 13.1179H64.1702V14.9298H62.3608V13.1179ZM64.1702 13.1179H65.9795V14.9298H64.1702V13.1179ZM62.3608 14.9298H64.1702V16.7416H62.3608V14.9298ZM64.1702 14.9298H65.9795V16.7416H64.1702V14.9298ZM62.3608 16.7416H64.1702V18.5535H62.3608V16.7416ZM64.1702 16.7416H65.9795V18.5535H64.1702V16.7416ZM62.3608 18.5535H64.1702V20.3654H62.3608V18.5535ZM64.1702 18.5535H65.9795V20.3654H64.1702V18.5535ZM65.9795 18.5535H67.7888V20.3654H65.9795V18.5535ZM67.7888 18.5535H69.5981V20.3654H67.7888V18.5535ZM69.5981 18.5535H71.4074V20.3654H69.5981V18.5535ZM71.4074 18.5535H73.2167V20.3654H71.4074V18.5535ZM73.2167 18.5535H75.026V20.3654H73.2167V18.5535ZM75.026 18.5535H76.8353V20.3654H75.026V18.5535ZM76.8353 18.5535H78.6446V20.3654H76.8353V18.5535ZM78.6446 18.5535H80.4539V20.3654H78.6446V18.5535ZM62.3608 20.3654H64.1702V22.1772H62.3608V20.3654ZM64.1702 20.3654H65.9795V22.1772H64.1702V20.3654ZM65.9795 20.3654H67.7888V22.1772H65.9795V20.3654ZM67.7888 20.3654H69.5981V22.1772H67.7888V20.3654ZM69.5981 20.3654H71.4074V22.1772H69.5981V20.3654ZM71.4074 20.3654H73.2167V22.1772H71.4074V20.3654ZM73.2167 20.3654H75.026V22.1772H73.2167V20.3654ZM75.026 20.3654H76.8353V22.1772H75.026V20.3654ZM76.8353 20.3654H78.6446V22.1772H76.8353V20.3654ZM78.6446 20.3654H80.4539V22.1772H78.6446V20.3654Z" fill="url(#paint2_linear_34_2)"/>
<path d="M82.7337 4.05858H84.543V5.87044H82.7337V4.05858ZM84.543 4.05858H86.3523V5.87044H84.543V4.05858ZM93.5895 4.05858H95.3988V5.87044H93.5895V4.05858ZM95.3988 4.05858H97.2081V5.87044H95.3988V4.05858ZM82.7337 5.87044H84.543V7.6823H82.7337V5.87044ZM84.543 5.87044H86.3523V7.6823H84.543V5.87044ZM93.5895 5.87044H95.3988V7.6823H93.5895V5.87044ZM95.3988 5.87044H97.2081V7.6823H95.3988V5.87044ZM82.7337 7.6823H84.543V9.49417H82.7337V7.6823ZM84.543 7.6823H86.3523V9.49417H84.543V7.6823ZM89.9709 7.6823H91.7802V9.49417H89.9709V7.6823ZM91.7802 7.6823H93.5895V9.49417H91.7802V7.6823ZM82.7337 9.49417H84.543V11.306H82.7337V9.49417ZM84.543 9.49417H86.3523V11.306H84.543V9.49417ZM89.9709 9.49417H91.7802V11.306H89.9709V9.49417ZM91.7802 9.49417H93.5895V11.306H91.7802V9.49417ZM82.7337 11.306H84.543V13.1179H82.7337V11.306ZM84.543 11.306H86.3523V13.1179H84.543V11.306ZM86.3523 11.306H88.1616V13.1179H86.3523V11.306ZM88.1616 11.306H89.9709V13.1179H88.1616V11.306ZM82.7337 13.1179H84.543V14.9298H82.7337V13.1179ZM84.543 13.1179H86.3523V14.9298H84.543V13.1179ZM86.3523 13.1179H88.1616V14.9298H86.3523V13.1179ZM88.1616 13.1179H89.9709V14.9298H88.1616V13.1179ZM82.7337 14.9298H84.543V16.7416H82.7337V14.9298ZM84.543 14.9298H86.3523V16.7416H84.543V14.9298ZM89.9709 14.9298H91.7802V16.7416H89.9709V14.9298ZM91.7802 14.9298H93.5895V16.7416H91.7802V14.9298ZM82.7337 16.7416H84.543V18.5535H82.7337V16.7416ZM84.543 16.7416H86.3523V18.5535H84.543V16.7416ZM89.9709 16.7416H91.7802V18.5535H89.9709V16.7416ZM91.7802 16.7416H93.5895V18.5535H91.7802V16.7416ZM82.7337 18.5535H84.543V20.3654H82.7337V18.5535ZM84.543 18.5535H86.3523V20.3654H84.543V18.5535ZM93.5895 18.5535H95.3988V20.3654H93.5895V18.5535ZM95.3988 18.5535H97.2081V20.3654H95.3988V18.5535ZM82.7337 20.3654H84.543V22.1772H82.7337V20.3654ZM84.543 20.3654H86.3523V22.1772H84.543V20.3654ZM93.5895 20.3654H95.3988V22.1772H93.5895V20.3654ZM95.3988 20.3654H97.2081V22.1772H95.3988V20.3654Z" fill="url(#paint3_linear_34_2)"/>
<path d="M106.834 4.05858H108.643V5.87044H106.834V4.05858ZM108.643 4.05858H110.452V5.87044H108.643V4.05858ZM110.452 4.05858H112.262V5.87044H110.452V4.05858ZM112.262 4.05858H114.071V5.87044H112.262V4.05858ZM114.071 4.05858H115.88V5.87044H114.071V4.05858ZM115.88 4.05858H117.69V5.87044H115.88V4.05858ZM117.69 4.05858H119.499V5.87044H117.69V4.05858ZM119.499 4.05858H121.308V5.87044H119.499V4.05858ZM121.308 4.05858H123.117V5.87044H121.308V4.05858ZM123.117 4.05858H124.927V5.87044H123.117V4.05858ZM106.834 5.87044H108.643V7.6823H106.834V5.87044ZM108.643 5.87044H110.452V7.6823H108.643V5.87044ZM110.452 5.87044H112.262V7.6823H110.452V5.87044ZM112.262 5.87044H114.071V7.6823H112.262V5.87044ZM114.071 5.87044H115.88V7.6823H114.071V5.87044ZM115.88 5.87044H117.69V7.6823H115.88V5.87044ZM117.69 5.87044H119.499V7.6823H117.69V5.87044ZM119.499 5.87044H121.308V7.6823H119.499V5.87044ZM121.308 5.87044H123.117V7.6823H121.308V5.87044ZM123.117 5.87044H124.927V7.6823H123.117V5.87044ZM106.834 7.6823H108.643V9.49417H106.834V7.6823ZM108.643 7.6823H110.452V9.49417H108.643V7.6823ZM121.308 7.6823H123.117V9.49417H121.308V7.6823ZM123.117 7.6823H124.927V9.49417H123.117V7.6823ZM106.834 9.49417H108.643V11.306H106.834V9.49417ZM108.643 9.49417H110.452V11.306H108.643V9.49417ZM121.308 9.49417H123.117V11.306H121.308V9.49417ZM123.117 9.49417H124.927V11.306H123.117V9.49417ZM106.834 11.306H108.643V13.1179H106.834V11.306ZM108.643 11.306H110.452V13.1179H108.643V11.306ZM110.452 11.306H112.262V13.1179H110.452V11.306ZM112.262 11.306H114.071V13.1179H112.262V11.306ZM114.071 11.306H115.88V13.1179H114.071V11.306ZM115.88 11.306H117.69V13.1179H115.88V11.306ZM117.69 11.306H119.499V13.1179H117.69V11.306ZM119.499 11.306H121.308V13.1179H119.499V11.306ZM121.308 11.306H123.117V13.1179H121.308V11.306ZM123.117 11.306H124.927V13.1179H123.117V11.306ZM106.834 13.1179H108.643V14.9298H106.834V13.1179ZM108.643 13.1179H110.452V14.9298H108.643V13.1179ZM110.452 13.1179H112.262V14.9298H110.452V13.1179ZM112.262 13.1179H114.071V14.9298H112.262V13.1179ZM114.071 13.1179H115.88V14.9298H114.071V13.1179ZM115.88 13.1179H117.69V14.9298H115.88V13.1179ZM117.69 13.1179H119.499V14.9298H117.69V13.1179ZM119.499 13.1179H121.308V14.9298H119.499V13.1179ZM121.308 13.1179H123.117V14.9298H121.308V13.1179ZM123.117 13.1179H124.927V14.9298H123.117V13.1179ZM106.834 14.9298H108.643V16.7416H106.834V14.9298ZM108.643 14.9298H110.452V16.7416H108.643V14.9298ZM121.308 14.9298H123.117V16.7416H121.308V14.9298ZM123.117 14.9298H124.927V16.7416H123.117V14.9298ZM106.834 16.7416H108.643V18.5535H106.834V16.7416ZM108.643 16.7416H110.452V18.5535H108.643V16.7416ZM121.308 16.7416H123.117V18.5535H121.308V16.7416ZM123.117 16.7416H124.927V18.5535H123.117V16.7416ZM106.834 18.5535H108.643V20.3654H106.834V18.5535ZM108.643 18.5535H110.452V20.3654H108.643V18.5535ZM110.452 18.5535H112.262V20.3654H110.452V18.5535ZM112.262 18.5535H114.071V20.3654H112.262V18.5535ZM114.071 18.5535H115.88V20.3654H114.071V18.5535ZM115.88 18.5535H117.69V20.3654H115.88V18.5535ZM117.69 18.5535H119.499V20.3654H117.69V18.5535ZM119.499 18.5535H121.308V20.3654H119.499V18.5535ZM121.308 18.5535H123.117V20.3654H121.308V18.5535ZM123.117 18.5535H124.927V20.3654H123.117V18.5535ZM106.834 20.3654H108.643V22.1772H106.834V20.3654ZM108.643 20.3654H110.452V22.1772H108.643V20.3654ZM110.452 20.3654H112.262V22.1772H110.452V20.3654ZM112.262 20.3654H114.071V22.1772H112.262V20.3654ZM114.071 20.3654H115.88V22.1772H114.071V20.3654ZM115.88 20.3654H117.69V22.1772H115.88V20.3654ZM117.69 20.3654H119.499V22.1772H117.69V20.3654ZM119.499 20.3654H121.308V22.1772H119.499V20.3654ZM121.308 20.3654H123.117V22.1772H121.308V20.3654ZM123.117 20.3654H124.927V22.1772H123.117V20.3654Z" fill="url(#paint4_linear_34_2)"/>
<path d="M127.206 4.05858H129.016V5.87044H127.206V4.05858ZM129.016 4.05858H130.825V5.87044H129.016V4.05858ZM141.681 4.05858H143.49V5.87044H141.681V4.05858ZM143.49 4.05858H145.3V5.87044H143.49V4.05858ZM127.206 5.87044H129.016V7.6823H127.206V5.87044ZM129.016 5.87044H130.825V7.6823H129.016V5.87044ZM141.681 5.87044H143.49V7.6823H141.681V5.87044ZM143.49 5.87044H145.3V7.6823H143.49V5.87044ZM127.206 7.6823H129.016V9.49417H127.206V7.6823ZM129.016 7.6823H130.825V9.49417H129.016V7.6823ZM141.681 7.6823H143.49V9.49417H141.681V7.6823ZM143.49 7.6823H145.3V9.49417H143.49V7.6823ZM127.206 9.49417H129.016V11.306H127.206V9.49417ZM129.016 9.49417H130.825V11.306H129.016V9.49417ZM141.681 9.49417H143.49V11.306H141.681V9.49417ZM143.49 9.49417H145.3V11.306H143.49V9.49417ZM127.206 11.306H129.016V13.1179H127.206V11.306ZM129.016 11.306H130.825V13.1179H129.016V11.306ZM141.681 11.306H143.49V13.1179H141.681V11.306ZM143.49 11.306H145.3V13.1179H143.49V11.306ZM127.206 13.1179H129.016V14.9298H127.206V13.1179ZM129.016 13.1179H130.825V14.9298H129.016V13.1179ZM141.681 13.1179H143.49V14.9298H141.681V13.1179ZM143.49 13.1179H145.3V14.9298H143.49V13.1179ZM127.206 14.9298H129.016V16.7416H127.206V14.9298ZM129.016 14.9298H130.825V16.7416H129.016V14.9298ZM141.681 14.9298H143.49V16.7416H141.681V14.9298ZM143.49 14.9298H145.3V16.7416H143.49V14.9298ZM127.206 16.7416H129.016V18.5535H127.206V16.7416ZM129.016 16.7416H130.825V18.5535H129.016V16.7416ZM141.681 16.7416H143.49V18.5535H141.681V16.7416ZM143.49 16.7416H145.3V18.5535H143.49V16.7416ZM127.206 18.5535H129.016V20.3654H127.206V18.5535ZM129.016 18.5535H130.825V20.3654H129.016V18.5535ZM130.825 18.5535H132.634V20.3654H130.825V18.5535ZM132.634 18.5535H134.444V20.3654H132.634V18.5535ZM134.444 18.5535H136.253V20.3654H134.444V18.5535ZM136.253 18.5535H138.062V20.3654H136.253V18.5535ZM138.062 18.5535H139.872V20.3654H138.062V18.5535ZM139.872 18.5535H141.681V20.3654H139.872V18.5535ZM141.681 18.5535H143.49V20.3654H141.681V18.5535ZM143.49 18.5535H145.3V20.3654H143.49V18.5535ZM127.206 20.3654H129.016V22.1772H127.206V20.3654ZM129.016 20.3654H130.825V22.1772H129.016V20.3654ZM130.825 20.3654H132.634V22.1772H130.825V20.3654ZM132.634 20.3654H134.444V22.1772H132.634V20.3654ZM134.444 20.3654H136.253V22.1772H134.444V20.3654ZM136.253 20.3654H138.062V22.1772H136.253V20.3654ZM138.062 20.3654H139.872V22.1772H138.062V20.3654ZM139.872 20.3654H141.681V22.1772H139.872V20.3654ZM141.681 20.3654H143.49V22.1772H141.681V20.3654ZM143.49 20.3654H145.3V22.1772H143.49V20.3654Z" fill="url(#paint5_linear_34_2)"/>
<path d="M162.416 4.05858H164.225V5.87044H162.416V4.05858ZM164.225 4.05858H166.034V5.87044H164.225V4.05858ZM166.034 4.05858H167.844V5.87044H166.034V4.05858ZM167.844 4.05858H169.653V5.87044H167.844V4.05858ZM169.653 4.05858H171.462V5.87044H169.653V4.05858ZM171.462 4.05858H173.271V5.87044H171.462V4.05858ZM173.271 4.05858H175.081V5.87044H173.271V4.05858ZM175.081 4.05858H176.89V5.87044H175.081V4.05858ZM162.416 5.87044H164.225V7.6823H162.416V5.87044ZM164.225 5.87044H166.034V7.6823H164.225V5.87044ZM166.034 5.87044H167.844V7.6823H166.034V5.87044ZM167.844 5.87044H169.653V7.6823H167.844V5.87044ZM169.653 5.87044H171.462V7.6823H169.653V5.87044ZM171.462 5.87044H173.271V7.6823H171.462V5.87044ZM173.271 5.87044H175.081V7.6823H173.271V5.87044ZM175.081 5.87044H176.89V7.6823H175.081V5.87044ZM162.416 7.6823H164.225V9.49417H162.416V7.6823ZM164.225 7.6823H166.034V9.49417H164.225V7.6823ZM176.89 7.6823H178.699V9.49417H176.89V7.6823ZM178.699 7.6823H180.509V9.49417H178.699V7.6823ZM162.416 9.49417H164.225V11.306H162.416V9.49417ZM164.225 9.49417H166.034V11.306H164.225V9.49417ZM176.89 9.49417H178.699V11.306H176.89V9.49417ZM178.699 9.49417H180.509V11.306H178.699V9.49417ZM162.416 11.306H164.225V13.1179H162.416V11.306ZM164.225 11.306H166.034V13.1179H164.225V11.306ZM176.89 11.306H178.699V13.1179H176.89V11.306ZM178.699 11.306H180.509V13.1179H178.699V11.306ZM162.416 13.1179H164.225V14.9298H162.416V13.1179ZM164.225 13.1179H166.034V14.9298H164.225V13.1179ZM176.89 13.1179H178.699V14.9298H176.89V13.1179ZM178.699 13.1179H180.509V14.9298H178.699V13.1179ZM162.416 14.9298H164.225V16.7416H162.416V14.9298ZM164.225 14.9298H166.034V16.7416H164.225V14.9298ZM176.89 14.9298H178.699V16.7416H176.89V14.9298ZM178.699 14.9298H180.509V16.7416H178.699V14.9298ZM162.416 16.7416H164.225V18.5535H162.416V16.7416ZM164.225 16.7416H166.034V18.5535H164.225V16.7416ZM176.89 16.7416H178.699V18.5535H176.89V16.7416ZM178.699 16.7416H180.509V18.5535H178.699V16.7416ZM162.416 18.5535H164.225V20.3654H162.416V18.5535ZM164.225 18.5535H166.034V20.3654H164.225V18.5535ZM166.034 18.5535H167.844V20.3654H166.034V18.5535ZM167.844 18.5535H169.653V20.3654H167.844V18.5535ZM169.653 18.5535H171.462V20.3654H169.653V18.5535ZM171.462 18.5535H173.271V20.3654H171.462V18.5535ZM173.271 18.5535H175.081V20.3654H173.271V18.5535ZM175.081 18.5535H176.89V20.3654H175.081V18.5535ZM162.416 20.3654H164.225V22.1772H162.416V20.3654ZM164.225 20.3654H166.034V22.1772H164.225V20.3654ZM166.034 20.3654H167.844V22.1772H166.034V20.3654ZM167.844 20.3654H169.653V22.1772H167.844V20.3654ZM169.653 20.3654H171.462V22.1772H169.653V20.3654ZM171.462 20.3654H173.271V22.1772H171.462V20.3654ZM173.271 20.3654H175.081V22.1772H173.271V20.3654ZM175.081 20.3654H176.89V22.1772H175.081V20.3654Z" fill="url(#paint6_linear_34_2)"/>
<path d="M182.788 4.05858H184.598V5.87044H182.788V4.05858ZM184.598 4.05858H186.407V5.87044H184.598V4.05858ZM182.788 5.87044H184.598V7.6823H182.788V5.87044ZM184.598 5.87044H186.407V7.6823H184.598V5.87044ZM182.788 7.6823H184.598V9.49417H182.788V7.6823ZM184.598 7.6823H186.407V9.49417H184.598V7.6823ZM182.788 9.49417H184.598V11.306H182.788V9.49417ZM184.598 9.49417H186.407V11.306H184.598V9.49417ZM182.788 11.306H184.598V13.1179H182.788V11.306ZM184.598 11.306H186.407V13.1179H184.598V11.306ZM182.788 13.1179H184.598V14.9298H182.788V13.1179ZM184.598 13.1179H186.407V14.9298H184.598V13.1179ZM182.788 14.9298H184.598V16.7416H182.788V14.9298ZM184.598 14.9298H186.407V16.7416H184.598V14.9298ZM182.788 16.7416H184.598V18.5535H182.788V16.7416ZM184.598 16.7416H186.407V18.5535H184.598V16.7416ZM182.788 18.5535H184.598V20.3654H182.788V18.5535ZM184.598 18.5535H186.407V20.3654H184.598V18.5535ZM186.407 18.5535H188.216V20.3654H186.407V18.5535ZM188.216 18.5535H190.026V20.3654H188.216V18.5535ZM190.026 18.5535H191.835V20.3654H190.026V18.5535ZM191.835 18.5535H193.644V20.3654H191.835V18.5535ZM193.644 18.5535H195.454V20.3654H193.644V18.5535ZM195.454 18.5535H197.263V20.3654H195.454V18.5535ZM197.263 18.5535H199.072V20.3654H197.263V18.5535ZM199.072 18.5535H200.882V20.3654H199.072V18.5535ZM182.788 20.3654H184.598V22.1772H182.788V20.3654ZM184.598 20.3654H186.407V22.1772H184.598V20.3654ZM186.407 20.3654H188.216V22.1772H186.407V20.3654ZM188.216 20.3654H190.026V22.1772H188.216V20.3654ZM190.026 20.3654H191.835V22.1772H190.026V20.3654ZM191.835 20.3654H193.644V22.1772H191.835V20.3654ZM193.644 20.3654H195.454V22.1772H193.644V20.3654ZM195.454 20.3654H197.263V22.1772H195.454V20.3654ZM197.263 20.3654H199.072V22.1772H197.263V20.3654ZM199.072 20.3654H200.882V22.1772H199.072V20.3654Z" fill="url(#paint7_linear_34_2)"/>
<path d="M203.161 4.05858H204.971V5.87044H203.161V4.05858ZM204.971 4.05858H206.78V5.87044H204.971V4.05858ZM206.78 4.05858H208.589V5.87044H206.78V4.05858ZM208.589 4.05858H210.399V5.87044H208.589V4.05858ZM210.399 4.05858H212.208V5.87044H210.399V4.05858ZM212.208 4.05858H214.017V5.87044H212.208V4.05858ZM214.017 4.05858H215.826V5.87044H214.017V4.05858ZM215.826 4.05858H217.636V5.87044H215.826V4.05858ZM217.636 4.05858H219.445V5.87044H217.636V4.05858ZM219.445 4.05858H221.254V5.87044H219.445V4.05858ZM203.161 5.87044H204.971V7.6823H203.161V5.87044ZM204.971 5.87044H206.78V7.6823H204.971V5.87044ZM206.78 5.87044H208.589V7.6823H206.78V5.87044ZM208.589 5.87044H210.399V7.6823H208.589V5.87044ZM210.399 5.87044H212.208V7.6823H210.399V5.87044ZM212.208 5.87044H214.017V7.6823H212.208V5.87044ZM214.017 5.87044H215.826V7.6823H214.017V5.87044ZM215.826 5.87044H217.636V7.6823H215.826V5.87044ZM217.636 5.87044H219.445V7.6823H217.636V5.87044ZM219.445 5.87044H221.254V7.6823H219.445V5.87044ZM203.161 7.6823H204.971V9.49417H203.161V7.6823ZM204.971 7.6823H206.78V9.49417H204.971V7.6823ZM203.161 9.49417H204.971V11.306H203.161V9.49417ZM204.971 9.49417H206.78V11.306H204.971V9.49417ZM203.161 11.306H204.971V13.1179H203.161V11.306ZM204.971 11.306H206.78V13.1179H204.971V11.306ZM206.78 11.306H208.589V13.1179H206.78V11.306ZM208.589 11.306H210.399V13.1179H208.589V11.306ZM210.399 11.306H212.208V13.1179H210.399V11.306ZM212.208 11.306H214.017V13.1179H212.208V11.306ZM203.161 13.1179H204.971V14.9298H203.161V13.1179ZM204.971 13.1179H206.78V14.9298H204.971V13.1179ZM206.78 13.1179H208.589V14.9298H206.78V13.1179ZM208.589 13.1179H210.399V14.9298H208.589V13.1179ZM210.399 13.1179H212.208V14.9298H210.399V13.1179ZM212.208 13.1179H214.017V14.9298H212.208V13.1179ZM203.161 14.9298H204.971V16.7416H203.161V14.9298ZM204.971 14.9298H206.78V16.7416H204.971V14.9298ZM203.161 16.7416H204.971V18.5535H203.161V16.7416ZM204.971 16.7416H206.78V18.5535H204.971V16.7416ZM203.161 18.5535H204.971V20.3654H203.161V18.5535ZM204.971 18.5535H206.78V20.3654H204.971V18.5535ZM206.78 18.5535H208.589V20.3654H206.78V18.5535ZM208.589 18.5535H210.399V20.3654H208.589V18.5535ZM210.399 18.5535H212.208V20.3654H210.399V18.5535ZM212.208 18.5535H214.017V20.3654H212.208V18.5535ZM214.017 18.5535H215.826V20.3654H214.017V18.5535ZM215.826 18.5535H217.636V20.3654H215.826V18.5535ZM217.636 18.5535H219.445V20.3654H217.636V18.5535ZM219.445 18.5535H221.254V20.3654H219.445V18.5535ZM203.161 20.3654H204.971V22.1772H203.161V20.3654ZM204.971 20.3654H206.78V22.1772H204.971V20.3654ZM206.78 20.3654H208.589V22.1772H206.78V20.3654ZM208.589 20.3654H210.399V22.1772H208.589V20.3654ZM210.399 20.3654H212.208V22.1772H210.399V20.3654ZM212.208 20.3654H214.017V22.1772H212.208V20.3654ZM214.017 20.3654H215.826V22.1772H214.017V20.3654ZM215.826 20.3654H217.636V22.1772H215.826V20.3654ZM217.636 20.3654H219.445V22.1772H217.636V20.3654ZM219.445 20.3654H221.254V22.1772H219.445V20.3654Z" fill="url(#paint8_linear_34_2)"/>
<path d="M223.534 4.05858H225.343V5.87044H223.534V4.05858ZM225.343 4.05858H227.153V5.87044H225.343V4.05858ZM227.153 4.05858H228.962V5.87044H227.153V4.05858ZM228.962 4.05858H230.771V5.87044H228.962V4.05858ZM230.771 4.05858H232.581V5.87044H230.771V4.05858ZM232.581 4.05858H234.39V5.87044H232.581V4.05858ZM234.39 4.05858H236.199V5.87044H234.39V4.05858ZM236.199 4.05858H238.009V5.87044H236.199V4.05858ZM238.009 4.05858H239.818V5.87044H238.009V4.05858ZM239.818 4.05858H241.627V5.87044H239.818V4.05858ZM223.534 5.87044H225.343V7.6823H223.534V5.87044ZM225.343 5.87044H227.153V7.6823H225.343V5.87044ZM227.153 5.87044H228.962V7.6823H227.153V5.87044ZM228.962 5.87044H230.771V7.6823H228.962V5.87044ZM230.771 5.87044H232.581V7.6823H230.771V5.87044ZM232.581 5.87044H234.39V7.6823H232.581V5.87044ZM234.39 5.87044H236.199V7.6823H234.39V5.87044ZM236.199 5.87044H238.009V7.6823H236.199V5.87044ZM238.009 5.87044H239.818V7.6823H238.009V5.87044ZM239.818 5.87044H241.627V7.6823H239.818V5.87044ZM223.534 7.6823H225.343V9.49417H223.534V7.6823ZM225.343 7.6823H227.153V9.49417H225.343V7.6823ZM238.009 7.6823H239.818V9.49417H238.009V7.6823ZM239.818 7.6823H241.627V9.49417H239.818V7.6823ZM223.534 9.49417H225.343V11.306H223.534V9.49417ZM225.343 9.49417H227.153V11.306H225.343V9.49417ZM238.009 9.49417H239.818V11.306H238.009V9.49417ZM239.818 9.49417H241.627V11.306H239.818V9.49417ZM223.534 11.306H225.343V13.1179H223.534V11.306ZM225.343 11.306H227.153V13.1179H225.343V11.306ZM227.153 11.306H228.962V13.1179H227.153V11.306ZM228.962 11.306H230.771V13.1179H228.962V11.306ZM230.771 11.306H232.581V13.1179H230.771V11.306ZM232.581 11.306H234.39V13.1179H232.581V11.306ZM234.39 11.306H236.199V13.1179H234.39V11.306ZM236.199 11.306H238.009V13.1179H236.199V11.306ZM238.009 11.306H239.818V13.1179H238.009V11.306ZM239.818 11.306H241.627V13.1179H239.818V11.306ZM223.534 13.1179H225.343V14.9298H223.534V13.1179ZM225.343 13.1179H227.153V14.9298H225.343V13.1179ZM227.153 13.1179H228.962V14.9298H227.153V13.1179ZM228.962 13.1179H230.771V14.9298H228.962V13.1179ZM230.771 13.1179H232.581V14.9298H230.771V13.1179ZM232.581 13.1179H234.39V14.9298H232.581V13.1179ZM234.39 13.1179H236.199V14.9298H234.39V13.1179ZM236.199 13.1179H238.009V14.9298H236.199V13.1179ZM238.009 13.1179H239.818V14.9298H238.009V13.1179ZM239.818 13.1179H241.627V14.9298H239.818V13.1179ZM223.534 14.9298H225.343V16.7416H223.534V14.9298ZM225.343 14.9298H227.153V16.7416H225.343V14.9298ZM227.153 14.9298H228.962V16.7416H227.153V14.9298ZM228.962 14.9298H230.771V16.7416H228.962V14.9298ZM223.534 16.7416H225.343V18.5535H223.534V16.7416ZM225.343 16.7416H227.153V18.5535H225.343V16.7416ZM227.153 16.7416H228.962V18.5535H227.153V16.7416ZM228.962 16.7416H230.771V18.5535H228.962V16.7416ZM223.534 18.5535H225.343V20.3654H223.534V18.5535ZM225.343 18.5535H227.153V20.3654H225.343V18.5535ZM230.771 18.5535H232.581V20.3654H230.771V18.5535ZM232.581 18.5535H234.39V20.3654H232.581V18.5535ZM234.39 18.5535H236.199V20.3654H234.39V18.5535ZM236.199 18.5535H238.009V20.3654H236.199V18.5535ZM223.534 20.3654H225.343V22.1772H223.534V20.3654ZM225.343 20.3654H227.153V22.1772H225.343V20.3654ZM230.771 20.3654H232.581V22.1772H230.771V20.3654ZM232.581 20.3654H234.39V22.1772H232.581V20.3654ZM234.39 20.3654H236.199V22.1772H234.39V20.3654ZM236.199 20.3654H238.009V22.1772H236.199V20.3654Z" fill="url(#paint9_linear_34_2)"/>
<path d="M243.907 4.05858H245.716V5.87044H243.907V4.05858ZM245.716 4.05858H247.526V5.87044H245.716V4.05858ZM247.526 4.05858H249.335V5.87044H247.526V4.05858ZM249.335 4.05858H251.144V5.87044H249.335V4.05858ZM251.144 4.05858H252.953V5.87044H251.144V4.05858ZM252.953 4.05858H254.763V5.87044H252.953V4.05858ZM254.763 4.05858H256.572V5.87044H254.763V4.05858ZM256.572 4.05858H258.381V5.87044H256.572V4.05858ZM258.381 4.05858H260.191V5.87044H258.381V4.05858ZM260.191 4.05858H262V5.87044H260.191V4.05858ZM243.907 5.87044H245.716V7.6823H243.907V5.87044ZM245.716 5.87044H247.526V7.6823H245.716V5.87044ZM247.526 5.87044H249.335V7.6823H247.526V5.87044ZM249.335 5.87044H251.144V7.6823H249.335V5.87044ZM251.144 5.87044H252.953V7.6823H251.144V5.87044ZM252.953 5.87044H254.763V7.6823H252.953V5.87044ZM254.763 5.87044H256.572V7.6823H254.763V5.87044ZM256.572 5.87044H258.381V7.6823H256.572V5.87044ZM258.381 5.87044H260.191V7.6823H258.381V5.87044ZM260.191 5.87044H262V7.6823H260.191V5.87044ZM243.907 7.6823H245.716V9.49417H243.907V7.6823ZM245.716 7.6823H247.526V9.49417H245.716V7.6823ZM243.907 9.49417H245.716V11.306H243.907V9.49417ZM245.716 9.49417H247.526V11.306H245.716V9.49417ZM243.907 11.306H245.716V13.1179H243.907V11.306ZM245.716 11.306H247.526V13.1179H245.716V11.306ZM247.526 11.306H249.335V13.1179H247.526V11.306ZM249.335 11.306H251.144V13.1179H249.335V11.306ZM251.144 11.306H252.953V13.1179H251.144V11.306ZM252.953 11.306H254.763V13.1179H252.953V11.306ZM254.763 11.306H256.572V13.1179H254.763V11.306ZM256.572 11.306H258.381V13.1179H256.572V11.306ZM258.381 11.306H260.191V13.1179H258.381V11.306ZM260.191 11.306H262V13.1179H260.191V11.306ZM243.907 13.1179H245.716V14.9298H243.907V13.1179ZM245.716 13.1179H247.526V14.9298H245.716V13.1179ZM247.526 13.1179H249.335V14.9298H247.526V13.1179ZM249.335 13.1179H251.144V14.9298H249.335V13.1179ZM251.144 13.1179H252.953V14.9298H251.144V13.1179ZM252.953 13.1179H254.763V14.9298H252.953V13.1179ZM254.763 13.1179H256.572V14.9298H254.763V13.1179ZM256.572 13.1179H258.381V14.9298H256.572V13.1179ZM258.381 13.1179H260.191V14.9298H258.381V13.1179ZM260.191 13.1179H262V14.9298H260.191V13.1179ZM258.381 14.9298H260.191V16.7416H258.381V14.9298ZM260.191 14.9298H262V16.7416H260.191V14.9298ZM258.381 16.7416H260.191V18.5535H258.381V16.7416ZM260.191 16.7416H262V18.5535H260.191V16.7416ZM243.907 18.5535H245.716V20.3654H243.907V18.5535ZM245.716 18.5535H247.526V20.3654H245.716V18.5535ZM247.526 18.5535H249.335V20.3654H247.526V18.5535ZM249.335 18.5535H251.144V20.3654H249.335V18.5535ZM251.144 18.5535H252.953V20.3654H251.144V18.5535ZM252.953 18.5535H254.763V20.3654H252.953V18.5535ZM254.763 18.5535H256.572V20.3654H254.763V18.5535ZM256.572 18.5535H258.381V20.3654H256.572V18.5535ZM258.381 18.5535H260.191V20.3654H258.381V18.5535ZM260.191 18.5535H262V20.3654H260.191V18.5535ZM243.907 20.3654H245.716V22.1772H243.907V20.3654ZM245.716 20.3654H247.526V22.1772H245.716V20.3654ZM247.526 20.3654H249.335V22.1772H247.526V20.3654ZM249.335 20.3654H251.144V22.1772H249.335V20.3654ZM251.144 20.3654H252.953V22.1772H251.144V20.3654ZM252.953 20.3654H254.763V22.1772H252.953V20.3654ZM254.763 20.3654H256.572V22.1772H254.763V20.3654ZM256.572 20.3654H258.381V22.1772H256.572V20.3654ZM258.381 20.3654H260.191V22.1772H258.381V20.3654ZM260.191 20.3654H262V22.1772H260.191V20.3654Z" fill="url(#paint10_linear_34_2)"/>
<path fill-rule="evenodd" clip-rule="evenodd" d="M156.69 10.1258C156.031 9.99416 155.348 10.0404 154.712 10.2599C154.076 10.4793 153.51 10.8641 153.072 11.3747C152.633 11.8853 152.338 12.5034 152.217 13.1657C152.096 13.8281 152.152 14.5108 152.381 15.1441L147.853 19.6782C147.729 19.8029 147.63 19.9512 147.564 20.1144C147.497 20.2777 147.464 20.4526 147.466 20.6289C147.468 20.8053 147.504 20.9795 147.574 21.1413C147.644 21.3032 147.746 21.4494 147.873 21.5715L148.367 22.0468C148.616 22.2862 148.948 22.4187 149.293 22.416C149.639 22.4134 149.969 22.2758 150.214 22.0327L154.805 17.4862C155.433 17.69 156.104 17.7262 156.751 17.5913C157.398 17.4564 157.998 17.155 158.493 16.7169C158.989 16.2787 159.361 15.719 159.574 15.0927C159.788 14.4665 159.834 13.7954 159.71 13.1456C159.682 12.9924 159.622 12.8468 159.534 12.7184C159.446 12.5899 159.332 12.4814 159.199 12.3999C159.115 12.3481 159.015 12.3262 158.917 12.3379C158.818 12.3496 158.727 12.3942 158.657 12.4644L156.887 14.2367C156.846 14.2795 156.796 14.3135 156.742 14.3367C156.687 14.3599 156.628 14.3719 156.569 14.3719C156.51 14.3719 156.451 14.3599 156.397 14.3367C156.342 14.3135 156.293 14.2795 156.252 14.2367C156.244 14.2291 156.236 14.2217 156.228 14.2146L155.57 13.6244C155.493 13.5415 155.451 13.4322 155.452 13.3191C155.453 13.206 155.498 13.0978 155.577 13.0166L157.339 11.2514C157.402 11.1891 157.444 11.1095 157.461 11.0229C157.478 10.9363 157.468 10.8466 157.434 10.7654C157.367 10.609 157.265 10.47 157.136 10.3591C157.007 10.2482 156.855 10.1684 156.69 10.1258Z" fill="white"/>
<path d="M14.8363 4.03375V0H11.1272V3.71432H7.41817V0H3.70908V3.71432H0V7.42864H3.70908V18.5714H0V22.2857H3.70933V26H7.41842V22.2857H11.1275V26H14.8366V21.9663C16.995 21.1996 18.5454 19.1352 18.5454 16.7142C18.5454 15.2886 18.0081 13.9864 17.1253 13.0001C18.0079 12.0138 18.5454 10.7114 18.5454 9.2858C18.5457 6.86481 16.995 4.80039 14.8363 4.03375ZM7.41842 14.8573H12.982C14.0045 14.8573 14.8366 15.6903 14.8366 16.7142C14.8366 17.7384 14.0048 18.5714 12.982 18.5714H7.41842V14.8573ZM12.982 11.143H7.41842V7.42864H12.982C14.0045 7.42864 14.8366 8.26164 14.8366 9.2858C14.8366 10.31 14.0045 11.143 12.982 11.143Z" fill="white"/>
<defs>
<linearGradient id="paint0_linear_34_2" x1="131" y1="0" x2="131" y2="26" gradientUnits="userSpaceOnUse">
<stop stop-color="#04D9FF"/>
<stop offset="1" stop-color="#4297FF"/>
</linearGradient>
<linearGradient id="paint1_linear_34_2" x1="131" y1="0" x2="131" y2="26" gradientUnits="userSpaceOnUse">
<stop stop-color="#04D9FF"/>
<stop offset="1" stop-color="#4297FF"/>
</linearGradient>
<linearGradient id="paint2_linear_34_2" x1="131" y1="0" x2="131" y2="26" gradientUnits="userSpaceOnUse">
<stop stop-color="#04D9FF"/>
<stop offset="1" stop-color="#4297FF"/>
</linearGradient>
<linearGradient id="paint3_linear_34_2" x1="131" y1="0" x2="131" y2="26" gradientUnits="userSpaceOnUse">
<stop stop-color="#04D9FF"/>
<stop offset="1" stop-color="#4297FF"/>
</linearGradient>
<linearGradient id="paint4_linear_34_2" x1="131" y1="0" x2="131" y2="26" gradientUnits="userSpaceOnUse">
<stop stop-color="#04D9FF"/>
<stop offset="1" stop-color="#4297FF"/>
</linearGradient>
<linearGradient id="paint5_linear_34_2" x1="131" y1="0" x2="131" y2="26" gradientUnits="userSpaceOnUse">
<stop stop-color="#04D9FF"/>
<stop offset="1" stop-color="#4297FF"/>
</linearGradient>
<linearGradient id="paint6_linear_34_2" x1="131" y1="0" x2="131" y2="26" gradientUnits="userSpaceOnUse">
<stop stop-color="#04D9FF"/>
<stop offset="1" stop-color="#4297FF"/>
</linearGradient>
<linearGradient id="paint7_linear_34_2" x1="131" y1="0" x2="131" y2="26" gradientUnits="userSpaceOnUse">
<stop stop-color="#04D9FF"/>
<stop offset="1" stop-color="#4297FF"/>
</linearGradient>
<linearGradient id="paint8_linear_34_2" x1="131" y1="0" x2="131" y2="26" gradientUnits="userSpaceOnUse">
<stop stop-color="#04D9FF"/>
<stop offset="1" stop-color="#4297FF"/>
</linearGradient>
<linearGradient id="paint9_linear_34_2" x1="131" y1="0" x2="131" y2="26" gradientUnits="userSpaceOnUse">
<stop stop-color="#04D9FF"/>
<stop offset="1" stop-color="#4297FF"/>
</linearGradient>
<linearGradient id="paint10_linear_34_2" x1="131" y1="0" x2="131" y2="26" gradientUnits="userSpaceOnUse">
<stop stop-color="#04D9FF"/>
<stop offset="1" stop-color="#4297FF"/>
</linearGradient>
</defs>
</svg>
